<svg width="100" height="30" fill="none" xmlns="http://www.w3.org/2000/svg"><g clip-path="url('#clip0_201_194')"><path d="m51.471 9.06 2.314-.911c1.934-.896 2.682-1.672 3.006-3.478l.296-1.659c.142-.811-.458-1.284-1.538-1.121l-3.817.585c-.896.219-1.545.445-1.601 1.433v4.55c0 .833.409.939 1.34.607V9.06Z" fill="#42B657"/><path d="M11.875 23.403c3.612 0 6.456-4.882 5.263-7.126 1.037 1.8 2.724 4.748 3.973 6.978C17.936 28.124 14.648 30 10.407 30 4.36 30 0 25.83 0 19.593v-16.1C0 1.572.79 1.473 2.272.965c1.46-.5 3.104-.79 4.417-.931C10.167-.34 9.088 2.462 8.67 5.799l-.091.727c2.088-.374 4.981-.882 5.708-.79 1.093.141-.43 4.6-.981 5.355-.65.882-3.493 1.687-5.525 2.3 0 0-2.081 10.02 4.1 10.02l-.007-.008Z" fill="#9D3E97"/><path d="M22.508 11.663c-1.376-1.087-2.787-.974-3.916-.22-1.595 1.073-2.413 3.162-1.447 4.834 1.037 1.8 2.724 4.748 3.973 6.978 2.095-3.125 4.219-8.615 1.39-11.592Z" fill="#6D469C"/><path d="M49.757 12.714c-1.327 6.64-4.304 11.05-4.304 11.05-1.263-2.485-3.33-7.692-6.125-11.142a4.837 4.837 0 0 0-1.298-1.129 3.259 3.259 0 0 1 1.34 2.61c0 .318-.028.65-.112.989-.826 3.408-1.658 5.905-2.484 7.79a173.695 173.695 0 0 1 2.173 3.95c2.075 3.93 7.36 3.782 9.554 1.856.86-.755 1.912-1.665 2.998-3.076l-.169-.275c-1.432-2.42-2.138-9.956-1.573-12.623Z" fill="#2DC2DD"/><path d="M55.952 12.255c-.53-1.058-1.405-1.735-2.823-1.778-2.836-.084-3.38 2.237-3.38 2.237-.564 2.667.142 10.202 1.574 12.623l.17.275c1.615-2.096 3.322-5.313 4.656-10.81.233-.973.148-1.855-.205-2.54l.008-.007Z" fill="#42B657"/><path d="M33.246 16.686a4.86 4.86 0 0 1-.211-.43c-.374-.797-.395-1.792-.261-2.597-1.101 6.654-3.197 10.104-3.197 10.104-1.263-2.483-3.337-7.684-6.124-11.14a6.131 6.131 0 0 0-.952-.96c2.829 2.977.705 8.466-1.39 11.592a145.77 145.77 0 0 1 1.961 3.577c2.074 3.93 7.36 3.782 9.553 1.856 1.348-1.178 2.745-2.618 4.15-5.814l-.946-1.672a979.814 979.814 0 0 0-2.583-4.509v-.007Z" fill="#1D489F"/><path d="M38.037 11.486a3.267 3.267 0 0 0-1.806-.628c-1.863-.056-3.154 1.01-3.45 2.794-.134.805-.113 1.8.26 2.59.064.155.135.303.212.437.755 1.313 1.673 2.914 2.583 4.509l.945 1.672c.826-1.884 1.658-4.375 2.484-7.79.38-1.573-.226-2.871-1.228-3.598v.014Z" fill="#2E7FC2"/><path d="M66.655 27.53c-.05-.042-.092-.09-.141-.133-.84-.826-1.531-1.792-1.969-2.837a6.79 6.79 0 0 1-.225-.627c-1.228.818-2.555 1.1-3.613 1.001-.938-.084-4.191-1.15-4.05-5.475.099-2.984.078-5.46-.635-7.041.29.663.353 1.481.134 2.384-1.326 5.497-3.04 8.714-4.657 10.81 1.503 2.335 4.156 4 6.738 4.304 3.585.416 6.315-.685 8.418-2.378v-.007Z" fill="#6DBE45"/><path d="M81.45 26.487a8.576 8.576 0 0 1-1.467-2.59c-.035-.099-.07-.197-.099-.303-1.503.55-3.965 1.016-5.687.536-2.519-.706-2.667-2.928-2.667-7.267 0 .063-.014.134-.02.197-.234 3.556-2.28 8.17-4.841 10.47 1.531 1.454 3.337 2.28 5.313 2.421 4.537.325 7.91-1.122 10.132-2.759-.184-.19-.473-.5-.65-.712l-.013.007Z" fill="#FFCE27"/><path d="m81.994 27.086.07.07c-.02-.02-.042-.048-.07-.07Z" fill="#000"/><path d="M82.1 27.2s2.61 2.8 7.43 2.8c4.818 0 10.477-4.021 10.477-9.602 0-4.954-2.074-7.684-4.318-8.799-2.462-1.22-4.812 1.228-5.468 2.632-.085.19.113.388.29.29.846-.46 2.75-.424 3.88 1.883 1.418 2.9-.755 7.486-3.846 6.865-3.492-.698-2.766-3.542-2.159-5.447-.973 2.928-2.68 6.823-6.286 9.37" fill="#EE2653"/><path d="M88.62 12.058c-1.094-1.411-2.223-1.665-3.832-1.411-.663.105-1.538.733-2.081 1.234-2.244 2.075-4.36 7.494-2.724 12.016.332.91.804 1.785 1.468 2.59.176.211.465.515.649.712 3.612-2.554 5.32-6.463 6.293-9.39.064-.213.135-.41.19-.594.643-2.053.707-4.29.036-5.15" fill="#F47A2C"/><path d="M72.808 4.233c.38-2.039.211-4.473-2.378-4.177L65.935.72c-1.368.283-1.735 1.623-1.799 2.689-.226 3.83-.458 15.155-.099 18.958.085.917.212 1.489.508 2.194.438 1.045 1.136 2.011 1.969 2.837.05.05.092.091.141.134 2.723-2.448 4.868-7.514 4.868-11.134L72.808 4.24v-.007Z" fill="#AAD03D"/></g><defs><clipPath id="clip0_201_194"><path fill="#fff" d="M0 0h100v30.001H0z"/></clipPath></defs></svg>